<svg width="35" height="34" viewBox="0 0 35 34" fill="none" xmlns="http://www.w3.org/2000/svg">
<path d="M31.7997 14.2255H30.625V14.1667H17.5V19.8333H25.7418C24.5394 23.132 21.3085 25.5 17.5 25.5C12.6678 25.5 8.75002 21.6941 8.75002 17C8.75002 12.3059 12.6678 8.5 17.5 8.5C19.7305 8.5 21.7598 9.31741 23.3049 10.6526L27.4298 6.64558C24.8252 4.28754 21.3413 2.83333 17.5 2.83333C9.44637 2.83333 2.91669 9.17645 2.91669 17C2.91669 24.8235 9.44637 31.1667 17.5 31.1667C25.5537 31.1667 32.0834 24.8235 32.0834 17C32.0834 16.0501 31.9827 15.1229 31.7997 14.2255Z" fill="#FFC107"/>
<path d="M4.59814 10.4061L9.3895 13.8196C10.686 10.7015 13.8257 8.49999 17.5 8.49999C19.7305 8.49999 21.7598 9.31741 23.3049 10.6526L27.4298 6.64558C24.8252 4.28754 21.3413 2.83333 17.5 2.83333C11.8986 2.83333 7.04085 5.90537 4.59814 10.4061Z" fill="#FF3D00"/>
<path d="M17.5 31.1667C21.2669 31.1667 24.6896 29.7663 27.2774 27.489L22.7639 23.7787C21.2997 24.8561 19.4797 25.5 17.5 25.5C13.7069 25.5 10.4862 23.1505 9.27284 19.8716L4.51721 23.431C6.93075 28.0188 11.8322 31.1667 17.5 31.1667Z" fill="#4CAF50"/>
<path d="M31.7997 14.2255H30.625V14.1667H17.5V19.8333H25.7418C25.1643 21.4179 24.115 22.7843 22.7617 23.7795C22.7624 23.7788 22.7631 23.7788 22.7639 23.778L27.2774 27.4883C26.958 27.7702 32.0833 24.0833 32.0833 17C32.0833 16.0501 31.9827 15.1229 31.7997 14.2255Z" fill="#1976D2"/>
</svg>
